<?xml version="1.0"?><svg xmlns="http://www.w3.org/2000/svg" fill="white" viewBox="0 0 64 64">    <path d="M 32.042969 0 C 31.735969 -0.006 31.437188 0.13490625 31.242188 0.37890625 C 24.297187 9.1209063 19.261531 19.086672 16.269531 30.013672 C 13.976531 38.910672 12.428016 49.989406 11.666016 62.941406 C 11.649016 63.215406 11.7475 63.485547 11.9375 63.685547 C 12.1255 63.886547 12.389063 64 12.664062 64 L 12.935547 64 C 13.312547 64 13.655172 63.788125 13.826172 63.453125 C 18.604172 54.044125 25.980313 45.909562 35.070312 39.976562 L 35.697266 39.648438 C 36.814266 39.054437 37.378406 38.769531 37.941406 38.769531 C 38.215406 38.769531 38.684969 39.176828 39.292969 39.923828 C 43.042969 45.310828 46.219234 51.076953 50.240234 58.376953 C 50.252234 58.397953 50.285828 58.453609 50.298828 58.474609 C 50.483828 58.758609 50.799672 58.929688 51.138672 58.929688 L 51.396484 58.929688 C 51.677484 58.929688 51.947719 58.809562 52.136719 58.601562 C 52.325719 58.392562 52.417625 58.114984 52.390625 57.833984 C 51.511625 48.627984 50.282969 37.947891 46.792969 27.712891 C 43.468969 17.672891 38.639125 8.2292969 32.828125 0.40429688 C 32.643125 0.15429688 32.353969 0.005 32.042969 0 z M 31.998047 2.6582031 C 37.338047 10.100203 41.785484 18.952609 44.896484 28.349609 C 47.794484 36.849609 49.109703 45.711047 49.970703 53.748047 C 46.822703 48.071047 44.081625 43.303609 40.890625 38.724609 C 39.942625 37.550609 39.078406 36.769531 37.941406 36.769531 C 36.854406 36.769531 35.974625 37.238859 34.765625 37.880859 L 34.0625 38.251953 C 28.5315 41.858953 23.651781 46.237594 19.550781 51.183594 C 19.861781 47.740594 20.263813 44.508828 20.757812 41.548828 C 20.848813 41.003828 20.4815 40.488437 19.9375 40.398438 C 19.3825 40.300438 18.876156 40.67475 18.785156 41.21875 C 18.139156 45.08675 17.647453 49.405875 17.314453 54.046875 C 16.104453 55.690875 14.959828 57.377953 13.923828 59.126953 C 14.743828 47.985953 16.182078 38.376344 18.205078 30.527344 C 21.002078 20.305344 25.640047 10.935203 31.998047 2.6582031 z M 43.486328 4.8105469 C 43.230453 4.8150469 42.975203 4.9167344 42.783203 5.1152344 L 41.554688 6.3886719 C 41.171687 6.7856719 41.183078 7.4187344 41.580078 7.8027344 C 41.774078 7.9907344 42.023438 8.0820312 42.273438 8.0820312 C 42.535438 8.0820312 42.797141 7.9803438 42.994141 7.7773438 L 44.222656 6.5039062 C 44.605656 6.1069062 44.594266 5.4738437 44.197266 5.0898438 C 43.998766 4.8983438 43.742203 4.8060469 43.486328 4.8105469 z M 46.658203 9.1171875 C 46.530156 9.138625 46.403359 9.1860156 46.287109 9.2597656 L 44.804688 10.203125 C 44.337688 10.499125 44.199094 11.116031 44.496094 11.582031 C 44.686094 11.882031 45.010797 12.046875 45.341797 12.046875 C 45.525797 12.046875 45.710953 11.995625 45.876953 11.890625 L 47.359375 10.947266 C 47.826375 10.651266 47.963969 10.034359 47.667969 9.5683594 C 47.445969 9.2181094 47.042344 9.052875 46.658203 9.1171875 z M 32.044922 12.601562 C 31.810922 12.601562 31.576875 12.750781 31.546875 13.050781 L 30.394531 24.576172 C 30.371531 24.809172 30.189031 24.995437 29.957031 25.023438 L 25.646484 25.537109 C 25.149484 25.596109 25.039234 26.268375 25.490234 26.484375 L 29.060547 28.195312 C 29.257547 28.289313 29.370844 28.50275 29.339844 28.71875 L 28.878906 31.939453 C 28.831906 32.271453 29.098906 32.511719 29.378906 32.511719 C 29.500906 32.511719 29.623562 32.466281 29.726562 32.363281 L 31.691406 30.398438 C 31.789406 30.300438 31.918875 30.253906 32.046875 30.253906 C 32.174875 30.253906 32.302391 30.301437 32.400391 30.398438 L 34.458984 32.457031 C 34.560984 32.559031 34.686594 32.605469 34.808594 32.605469 C 35.079594 32.605469 35.337547 32.3835 35.310547 32.0625 L 35.025391 28.691406 C 35.008391 28.488406 35.114875 28.295125 35.296875 28.203125 L 38.679688 26.488281 C 39.121688 26.265281 39.003719 25.605875 38.511719 25.546875 L 34.132812 25.023438 C 33.899813 24.995438 33.718312 24.809172 33.695312 24.576172 L 32.542969 13.050781 C 32.512969 12.750781 32.278922 12.601562 32.044922 12.601562 z M 49.373047 13.935547 C 49.243453 13.926297 49.109266 13.942078 48.978516 13.986328 L 47.302734 14.558594 C 46.780734 14.737594 46.502641 15.306125 46.681641 15.828125 C 46.823641 16.243125 47.210953 16.505859 47.626953 16.505859 C 47.733953 16.505859 47.842219 16.487172 47.949219 16.451172 L 49.626953 15.880859 C 50.148953 15.701859 50.427047 15.132375 50.248047 14.609375 C 50.113797 14.217125 49.761828 13.963297 49.373047 13.935547 z M 50.730469 19.09375 L 48.9375 19.269531 C 48.3885 19.323531 47.987016 19.811328 48.041016 20.361328 C 48.092016 20.878328 48.526156 21.263672 49.035156 21.263672 C 49.067156 21.263672 49.100766 21.262766 49.134766 21.259766 L 50.925781 21.082031 C 51.475781 21.028031 51.876266 20.540234 51.822266 19.990234 C 51.767266 19.441234 51.290469 19.04475 50.730469 19.09375 z M 21.177734 33.003906 C 20.793031 33.060484 20.456563 33.340937 20.351562 33.742188 C 20.100562 34.707188 19.863672 35.708141 19.638672 36.744141 C 19.521672 37.284141 19.864297 37.816594 20.404297 37.933594 C 20.475297 37.949594 20.547187 37.955078 20.617188 37.955078 C 21.077188 37.955078 21.49175 37.636969 21.59375 37.167969 C 21.81275 36.158969 22.042109 35.184141 22.287109 34.244141 C 22.426109 33.711141 22.106266 33.165391 21.572266 33.025391 C 21.440016 32.990891 21.305969 32.985047 21.177734 33.003906 z"/></svg>
