<svg xmlns="http://www.w3.org/2000/svg" viewBox="0 0 64 64"><path fill="#8a8e97" d="M18.257,11.936c-2.464,1.058-5.043,3.826-6.7,7.522c-2.474,5.528-1.943,11.025,1.194,12.286	c0.492,0.199,1.017,0.28,1.569,0.248"/><path fill="#8a8e97" d="M45.782,11.953c2.452,1.07,5.013,3.828,6.661,7.506c2.474,5.528,1.943,11.025-1.194,12.286	c-0.492,0.199-1.017,0.28-1.569,0.248"/><path fill="#ffeb9b" d="M43.581,49.435c0.015-0.22,0.014-0.446,0.021-0.669h5.129c-0.051-4.628-1.627-8.71-4.019-11.203	l-3.841,1.051C46.318,36.786,50,33.337,50,29.375c0-1.803-0.763-3.5-2.105-4.987c0.557-1.39,0.863-2.877,0.863-4.424	C48.759,12.252,41.256,6,32,6s-16.759,6.252-16.759,13.964c0,1.547,0.307,3.033,0.863,4.424C14.763,25.875,14,27.572,14,29.375	c0,3.962,3.682,7.411,9.129,9.238l-4.109-1.051c-2.392,2.493-3.967,6.575-4.019,11.203h5.397c0.007,0.223,0.006,0.449,0.021,0.669	c0.037,0.563,0.092,1.113,0.171,1.658l0.207,0.004c-0.269,0.753-0.421,1.573-0.421,2.434c0,1.41,0.4,2.711,1.077,3.778	C21.727,57.742,22.259,58,22.826,58h6.724c0.566,0,1.098-0.259,1.373-0.691C31.6,56.243,32,54.94,32,53.531	c0-0.782-0.129-1.529-0.353-2.224l0.702,0.014C32.127,52.012,32,52.754,32,53.531c0,1.41,0.4,2.711,1.077,3.778	C33.351,57.742,33.883,58,34.45,58h6.724c0.566,0,1.098-0.259,1.373-0.691c0.677-1.066,1.077-2.369,1.077-3.778	c0-0.697-0.099-1.368-0.279-1.998l0.004,0C43.458,50.848,43.532,50.151,43.581,49.435z"/><path fill="#fff8ee" d="M15.515,48.43c-0.138,0.35-0.219,0.728-0.219,1.127c0,1.704,1.381,3.085,3.085,3.085	s3.085-1.381,3.085-3.085c0-0.399-0.082-0.777-0.219-1.127H15.515z"/><path fill="#fff8ee" d="M42.578,48.43c-0.138,0.35-0.219,0.728-0.219,1.127c0,1.704,1.381,3.085,3.085,3.085	s3.085-1.381,3.085-3.085c0-0.399-0.082-0.777-0.219-1.127H42.578z"/><path fill="#fff8ee" d="M44,26.609c0-5.835-5.372-11.738-12-11.738s-12,5.904-12,11.738S25.372,36,32,36S44,32.444,44,26.609	z"/><circle cx="28.941" cy="24.047" r="1.047" fill="#8d6c9f"/><ellipse cx="35.006" cy="24" fill="#8d6c9f" rx=".994" ry="1"/><path fill="#8d6c9f" d="M32,24.965c-0.841,0-1.835,0.995-1.835,1.835c0,0.845,0.922,1.224,1.835,1.224	c0.913,0,1.835-0.378,1.835-1.224C33.835,25.959,32.841,24.965,32,24.965z"/><path fill="#8d6c9f" d="M36.752,27.646l-8.564,1.222c-0.547,0.078-0.927,0.585-0.849,1.132	c0.071,0.499,0.499,0.858,0.989,0.858c0.047,0,0.095-0.003,0.143-0.01L32,30.344v0.126c0,1.016,0.82,1.835,1.835,1.835	c1.016,0,1.835-0.82,1.835-1.835v-0.65l1.367-0.195c0.547-0.078,0.926-0.586,0.847-1.132C37.806,27.946,37.295,27.555,36.752,27.646	z"/><path fill="#f9dd8f" d="M46.759,21.964c-1.104,0-2-0.896-2-2C44.759,14.47,39.035,10,32,10l-0.313,0.003	c-1.116,0.037-2.021-0.846-2.048-1.95c-0.027-1.104,0.846-2.021,1.95-2.048L32,6c9.241,0,16.759,6.265,16.759,13.964	C48.759,21.068,47.863,21.964,46.759,21.964z"/><path fill="#f9dd8f" d="M30.222,57.731l-0.18-0.108c-0.817-0.49-1.164-1.451-0.966-2.383 c0.076-0.359,0.115-0.733,0.115-1.115c0-2.236-1.374-4.125-3-4.125c-0.004,0-0.008,0-0.012,0c-0.795,0.004-1.556-0.31-1.967-0.992 l-0.23-0.382C24.662,48.217,25.426,48,26.191,48c2.757,0,5,2.748,5,6.125C31.191,55.429,30.856,56.676,30.222,57.731z"/><path fill="#f9dd8f" d="M41.81,57.508L41.63,57.4c-0.817-0.49-1.164-1.451-0.966-2.383c0.076-0.359,0.115-0.733,0.115-1.115 c0-2.236-1.374-4.125-3-4.125c-0.004,0-0.008,0-0.012,0c-0.795,0.004-1.556-0.31-1.967-0.992l-0.23-0.382 c0.68-0.409,1.444-0.626,2.209-0.626c2.757,0,5,2.748,5,6.125C42.779,55.205,42.444,56.452,41.81,57.508z"/><path fill="#8d6c9f" d="M35.821,16.61c0.615,0.244,1.22,0.551,1.797,0.911c0.164,0.103,0.348,0.151,0.528,0.151 c0.333,0,0.659-0.167,0.85-0.471c0.292-0.468,0.149-1.085-0.319-1.377c-0.678-0.425-1.392-0.785-2.119-1.074 c-0.509-0.202-1.095,0.048-1.298,0.562C35.057,15.825,35.308,16.406,35.821,16.61z"/><path fill="#8d6c9f" d="M40.791,18.815c-0.433,0.344-0.506,0.973-0.163,1.405C42.157,22.151,43,24.42,43,26.608 C43,31.549,38.477,35,32,35s-11-3.451-11-8.392c0-5.069,4.704-10.738,11-10.738c0.553,0,1-0.447,1-1s-0.447-1-1-1 c-6.804,0-13,6.071-13,12.738C19,32.727,24.346,37,32,37s13-4.273,13-10.392c0-2.638-0.996-5.348-2.804-7.63 C41.852,18.546,41.224,18.472,40.791,18.815z"/><path fill="#8d6c9f" d="M53.355,19.05c-1.689-3.77-4.342-6.742-7.106-7.978C43.011,7.396,37.838,5,32,5 c-5.841,0-11.016,2.399-14.255,6.077c-2.762,1.237-5.411,4.201-7.102,7.973c-1.757,3.925-2.137,7.924-1.017,10.697 c0.573,1.421,1.525,2.433,2.749,2.924c0.482,0.195,0.998,0.29,1.532,0.311c0.838,1.621,2.236,3.072,4.054,4.283 c-2.464,2.796-3.909,6.938-3.961,11.505c0,3.014,2.427,5.468,5.429,5.518c0.116,1.277,0.506,2.496,1.18,3.557 C21.062,58.558,21.911,59,22.826,59h6.725c0.914,0,1.764-0.442,2.217-1.154c0.088-0.139,0.154-0.29,0.233-0.434 c0.079,0.144,0.144,0.294,0.232,0.433C32.684,58.558,33.533,59,34.449,59h6.725c0.915,0,1.765-0.442,2.218-1.154 c0.673-1.061,1.063-2.28,1.179-3.557c0,0.005,0.631-0.045,0.689-0.053c1.291-0.181,2.507-0.839,3.369-1.816 c0.88-0.997,1.396-2.331,1.381-3.665c-0.051-4.554-1.498-8.698-3.964-11.493c1.814-1.21,3.21-2.659,4.047-4.279 c0.534-0.021,1.049-0.116,1.53-0.31c1.226-0.493,2.178-1.504,2.751-2.925C55.493,26.975,55.113,22.976,53.355,19.05z M13,29.375 c0,0.493,0.063,0.975,0.156,1.451c-0.01-0.004-0.022-0.005-0.032-0.009c-0.72-0.289-1.272-0.901-1.643-1.818 c-0.907-2.245-0.528-5.744,0.987-9.131c0.67-1.495,1.522-2.848,2.462-3.989c-0.439,1.3-0.69,2.667-0.69,4.084 c0,1.433,0.242,2.851,0.721,4.224C13.676,25.783,13,27.565,13,29.375z M19.478,52.289c-1.842-0.023-3.334-1.47-3.454-3.289h3.382 c0.007,0.166,0.004,0.336,0.015,0.501c0.041,0.624,0.101,1.192,0.181,1.737c0.009,0.06,0.038,0.11,0.056,0.166 C19.581,51.692,19.523,51.988,19.478,52.289z M19.404,47H16.11c0.362-3.49,1.652-6.658,3.601-8.709 c0.496,0.254,1.016,0.491,1.555,0.713C20.168,41.437,19.532,44.166,19.404,47z M30.079,56.773C30.01,56.883,29.814,57,29.551,57 h-6.725c-0.265,0-0.46-0.117-0.528-0.227c-0.603-0.948-0.921-2.07-0.921-3.242c0-3.05,2.158-5.531,4.812-5.531S31,50.481,31,53.531 C31,54.702,30.682,55.824,30.079,56.773z M41.703,56.773C41.634,56.883,41.438,57,41.174,57h-6.725 c-0.264,0-0.458-0.117-0.527-0.227C33.318,55.824,33,54.702,33,53.531C33,50.481,35.158,48,37.812,48s4.812,2.481,4.812,5.531 C42.623,54.703,42.305,55.825,41.703,56.773z M42.619,48.201C41.386,46.842,39.686,46,37.812,46c-2.461,0-4.614,1.455-5.812,3.623 C30.803,47.455,28.649,46,26.188,46c-1.875,0-3.574,0.842-4.807,2.201c0-0.048-0.004-0.095-0.004-0.143 c0-2.985,0.617-5.861,1.778-8.372c1.793,0.565,3.755,0.966,5.845,1.161V43c0,0.553,0.447,1,1,1s1-0.447,1-1v-2.03 c0.333,0.01,0.662,0.03,1,0.03c0.34,0,0.671-0.02,1.006-0.03C33.006,40.98,33,40.989,33,41v4c0,0.553,0.447,1,1,1s1-0.447,1-1v-4 c0-0.053-0.022-0.099-0.03-0.15c2.102-0.194,4.074-0.597,5.876-1.164c1.16,2.511,1.778,5.387,1.778,8.372 C42.623,48.107,42.619,48.153,42.619,48.201z M44.522,52.29c-0.041-0.271-0.093-0.536-0.16-0.796 c0.095-0.628,0.168-1.278,0.216-1.991c0.011-0.165,0.009-0.335,0.015-0.502h3.393C47.867,50.822,46.37,52.271,44.522,52.29z M47.901,47h-3.307c-0.127-2.835-0.762-5.563-1.86-7.997c0.541-0.223,1.064-0.46,1.562-0.716 C46.248,40.339,47.539,43.508,47.901,47z M32,39c-9.374,0-17-4.317-17-9.625c0-1.507,0.621-2.959,1.847-4.316 c0.256-0.283,0.328-0.688,0.187-1.042c-0.525-1.312-0.792-2.676-0.792-4.053C16.241,12.815,23.311,7,32,7 s15.759,5.815,15.759,12.964c0,1.377-0.267,2.74-0.792,4.052c-0.142,0.354-0.069,0.759,0.187,1.042 C48.379,26.416,49,27.868,49,29.375C49,34.683,41.374,39,32,39z M52.519,28.999c-0.37,0.917-0.923,1.529-1.645,1.819 c-0.01,0.004-0.021,0.005-0.03,0.008C50.937,30.351,51,29.869,51,29.375c0-1.809-0.676-3.591-1.962-5.188 c0.479-1.372,0.721-2.79,0.721-4.223c0-1.417-0.25-2.783-0.689-4.082c0.94,1.141,1.792,2.494,2.46,3.986 C53.047,23.255,53.426,26.754,52.519,28.999z"/></svg>