<svg xmlns="http://www.w3.org/2000/svg" viewBox="0 0 64 64"><path fill="#f7a1c8" d="M43.613,43.808h-1.662c4.077-2.063,6.73-5.474,6.73-9.808c0-3.272-1.507-6.506-3.997-9.076	C46.115,23.559,47,21.683,47,19.611c0-4.172-3.582-7.554-8-7.554c-3.016,0-5.64,1.577-7.003,3.904C31.963,9.345,29.293,4,26,4	c-3.314,0-6,5.411-6,12.086c0,2.695,0.443,5.175,1.184,7.185c-3.584,2.749-5.864,6.708-5.864,10.729c0,4.334,2.653,7.745,6.73,9.808	h-1.662c-1.886,2.231-3.207,5.498-3.504,9.214h7.13c-0.586,0.912-0.949,2.044-0.949,3.288c0,1.164,0.307,2.239,0.827,3.12	C24.102,59.786,24.511,60,24.946,60h5.17c0.436,0,0.844-0.214,1.055-0.571C31.693,58.549,32,57.474,32,56.31	c0-1.244-0.363-2.375-0.949-3.288h1.898C32.363,53.935,32,55.066,32,56.31c0,1.164,0.307,2.239,0.828,3.12	C33.038,59.786,33.448,60,33.883,60h5.17c0.435,0,0.844-0.214,1.055-0.571c0.521-0.88,0.828-1.956,0.828-3.12	c0-1.244-0.363-2.375-0.949-3.288h7.13C46.82,49.306,45.499,46.039,43.613,43.808z"/><path fill="#fff8ee" d="M22.192,56.426h-1.585c-1.892,0-3.426-1.534-3.426-3.426v0h5.011V56.426z"/><path fill="#fff8ee" d="M41.458,56.122h1.585c1.892,0,3.426-1.534,3.426-3.426v0h-5.011V56.122z"/><path fill="#fff8ee" d="M28.176,20.385c0.172-0.872,0.271-1.858,0.271-2.906c0-3.519-1.096-6.372-2.447-6.372	s-2.447,2.853-2.447,6.372c0,1.568,0.218,3.001,0.579,4.111C25.391,21.053,26.75,20.651,28.176,20.385z"/><path fill="#8d6c9f" d="M24.132,22.59c-0.142,0-0.282-0.03-0.414-0.09c-0.256-0.116-0.45-0.334-0.537-0.602	c-0.411-1.266-0.628-2.794-0.628-4.42c0-3.551,1.079-7.372,3.447-7.372s3.447,3.821,3.447,7.372c0,1.079-0.098,2.122-0.29,3.1	c-0.079,0.401-0.396,0.715-0.798,0.79c-1.369,0.256-2.659,0.64-3.835,1.142C24.398,22.563,24.266,22.59,24.132,22.59z M28.176,20.385h0.01H28.176z M25.994,12.105c-0.423,0.092-1.441,2.03-1.441,5.373c0,0.976,0.092,1.928,0.263,2.771	c0.796-0.282,1.628-0.52,2.489-0.709c0.095-0.659,0.143-1.351,0.143-2.063C27.447,14.136,26.429,12.197,25.994,12.105z"/><path fill="#8d6c9f" d="M34.681,36.793c-0.553,0-1,0.447-1,1c0,0.105-0.229,0.173-0.388,0.173 c-0.126,0-0.225-0.033-0.267-0.067C33.019,37.893,33,37.878,33,37.793v-1.505c0.299-0.273,0.489-0.661,0.489-1.096 C33.489,34.446,32.932,34,32,34s-1.489,0.446-1.489,1.191c0,0.435,0.191,0.824,0.489,1.096v1.505c0,0.085-0.019,0.1-0.026,0.105 c-0.042,0.034-0.141,0.067-0.267,0.067c-0.158,0-0.388-0.067-0.388-0.173c0-0.553-0.447-1-1-1s-1,0.447-1,1 c0,1.239,1.026,2.173,2.388,2.173c0.473,0,0.92-0.13,1.293-0.358c0.373,0.229,0.82,0.358,1.293,0.358 c1.361,0,2.388-0.934,2.388-2.173C35.681,37.24,35.233,36.793,34.681,36.793z"/><path fill="#8d6c9f" d="M36,29h-2c-0.553,0-1,0.447-1,1s0.447,1,1,1h2c0.553,0,1-0.447,1-1S36.553,29,36,29z"/><path fill="#8d6c9f" d="M29.915,30.808c0.092,0,0.181-0.042,0.239-0.12c0.083-0.112,0.078-0.266-0.013-0.372l-3.574-4.17 c-0.054-0.063-0.132-0.101-0.214-0.104c-0.086-0.005-0.164,0.029-0.222,0.087l-1.787,1.787c-0.07,0.069-0.1,0.169-0.082,0.265 c0.018,0.096,0.082,0.178,0.172,0.218l5.362,2.383C29.833,30.8,29.874,30.808,29.915,30.808z"/><circle cx="35" cy="33" r="1" fill="#8d6c9f"/><circle cx="28" cy="33" r="1" fill="#8d6c9f"/><path fill="#8d6c9f" d="M30.117,60.5h-5.171c-0.618,0-1.188-0.313-1.485-0.815c-0.587-0.994-0.897-2.161-0.897-3.375	c0-3.249,2.229-5.893,4.969-5.893c2.739,0,4.968,2.644,4.968,5.893c0,1.214-0.311,2.381-0.897,3.374	C31.305,60.188,30.735,60.5,30.117,60.5z M27.532,51.417c-2.188,0-3.969,2.194-3.969,4.893c0,1.035,0.263,2.026,0.759,2.866	c0.116,0.196,0.361,0.324,0.624,0.324h5.171c0.263,0,0.508-0.128,0.624-0.325c0.496-0.839,0.759-1.83,0.759-2.865	C31.5,53.611,29.72,51.417,27.532,51.417z"/><path fill="#fbd" d="M45,21.61c-1.104,0-2-0.896-2-2c0-1.959-1.794-3.553-4-3.553c-1.104,0-2-0.896-2-2s0.896-2,2-2	c4.411,0,8,3.388,8,7.553C47,20.715,46.104,21.61,45,21.61z"/><g><path fill="#fbd" d="M30.312,58.921L30.312,58.921c-0.871-0.515-1.35-1.471-1.314-2.482 C28.999,56.396,29,56.353,29,56.31c0-0.809-0.284-1.508-0.658-1.939c-0.511-0.588-0.902-1.269-0.989-2.043l-0.045-0.401 C29.301,51.752,31,53.794,31,56.31C31,57.255,30.762,58.158,30.312,58.921z"/></g><g><path fill="#fbd" d="M39.248,58.921L39.248,58.921c-0.871-0.515-1.35-1.471-1.314-2.482 c0.002-0.043,0.002-0.086,0.002-0.129c0-0.809-0.284-1.508-0.658-1.939c-0.511-0.588-0.902-1.269-0.989-2.043l-0.045-0.401 c1.993-0.175,3.692,1.867,3.692,4.383C39.936,57.255,39.698,58.158,39.248,58.921z"/></g><g><path fill="#8d6c9f" d="M48.114,52.942c-0.295-3.699-1.558-7.066-3.551-9.539c3.209-2.313,5.118-5.592,5.118-9.404 c0-3.174-1.283-6.362-3.634-9.069C47.313,23.424,48,21.566,48,19.61c0-4.716-4.037-8.553-9-8.553c-2.314,0-4.504,0.849-6.148,2.311 C32.196,7.384,29.411,3,26,3c-3.925,0-7,5.748-7,13.086c0,2.438,0.348,4.788,1.009,6.844c-3.575,2.976-5.689,7.066-5.689,11.07 c0,3.812,1.909,7.091,5.118,9.404c-1.994,2.472-3.256,5.84-3.551,9.539c-0.001,0.009,0.004,0.018,0.003,0.027 c0,0.011-0.006,0.02-0.006,0.031c0,2.757,2.06,5,4.592,5c0.584,0,1.146-0.123,1.68-0.352c0.02,0.059,0.047,0.114,0.077,0.166 c0.156,0.754,0.416,1.475,0.8,2.125C23.418,60.594,24.152,61,24.946,61h5.171c0.775,0,1.488-0.391,1.882-1.019 C32.393,60.608,33.107,61,33.883,61h5.17c0.795,0,1.529-0.406,1.917-1.062c0.389-0.658,0.65-1.39,0.805-2.155 c0.025-0.048,0.057-0.091,0.074-0.144C42.385,57.872,42.963,58,43.544,58c2.521,0,4.573-2.233,4.573-4.979 c0-0.014-0.007-0.025-0.008-0.038C48.109,52.968,48.115,52.956,48.114,52.942z M16.319,34c0-3.593,2.046-7.308,5.473-9.936 c0.348-0.267,0.481-0.729,0.33-1.14C21.388,20.932,21,18.567,21,16.086C21,9.553,23.635,5,26,5c2.387,0,4.964,4.407,4.997,10.967 c0,0.009,0.004,0.017,0.004,0.026C31.001,15.995,31,15.997,31,16c0,1.615-0.164,3.176-0.487,4.638 c-0.119,0.539,0.222,1.073,0.761,1.192c0.072,0.016,0.146,0.023,0.217,0.023c0.459,0,0.872-0.317,0.976-0.784 c0.336-1.52,0.509-3.133,0.527-4.796c1.261-1.985,3.534-3.216,6.007-3.216c3.859,0,7,2.939,7,6.553c0,1.658-0.663,3.223-1.86,4.437 c-1.419,0.94-3.345,0.874-4.693-0.187c-0.437-0.342-1.063-0.266-1.404,0.168s-0.267,1.063,0.168,1.404 c1.075,0.846,2.361,1.293,3.718,1.293c0.878,0,1.731-0.2,2.518-0.566c2.082,2.361,3.234,5.117,3.234,7.84 c0,6.374-6.595,11-15.681,11S16.319,40.374,16.319,34z M21.555,55.727C21.215,55.908,20.852,56,20.475,56 c-1.416,0-2.567-1.323-2.588-2.956c0.001-0.015,0.004-0.029,0.005-0.044h3.655c0,0.043-0.004,0.085-0.004,0.128 c0,0.86,0.069,1.709,0.193,2.544C21.675,55.691,21.612,55.696,21.555,55.727z M30.312,58.92C30.288,58.959,30.213,59,30.117,59 h-5.171c-0.102,0-0.175-0.047-0.193-0.079c-0.451-0.763-0.689-1.666-0.689-2.611c0-2.422,1.556-4.393,3.469-4.393 c1.912,0,3.468,1.971,3.468,4.393C31,57.255,30.762,58.158,30.312,58.92z M39.248,58.92c-0.02,0.033-0.093,0.08-0.195,0.08h-5.17 c-0.103,0-0.176-0.047-0.194-0.078C33.238,58.158,33,57.255,33,56.31c0-2.422,1.556-4.393,3.468-4.393 c1.913,0,3.469,1.971,3.469,4.393C39.937,57.255,39.698,58.158,39.248,58.92z M41.809,48.438c-0.152-0.53-0.698-0.837-1.237-0.685 c-0.53,0.152-0.837,0.706-0.685,1.237c0.268,0.932,0.437,1.9,0.516,2.891c-0.995-1.209-2.39-1.965-3.935-1.965 c-1.845,0-3.477,1.078-4.468,2.72c-0.991-1.642-2.622-2.72-4.468-2.72c-1.545,0-2.94,0.756-3.935,1.965 c0.08-0.99,0.249-1.959,0.516-2.891c0.152-0.531-0.154-1.085-0.685-1.237c-0.539-0.153-1.085,0.154-1.237,0.685 c-0.239,0.831-0.406,1.689-0.513,2.562h-3.497c0.509-2.54,1.54-4.851,2.961-6.537C24.081,46.068,27.797,47,32,47 s7.919-0.932,10.857-2.537c1.421,1.686,2.452,3.998,2.961,6.537h-3.497C42.214,50.127,42.047,49.27,41.809,48.438z M43.544,56 c-0.375,0-0.736-0.091-1.072-0.271c-0.066-0.035-0.137-0.042-0.206-0.062c0.123-0.833,0.192-1.681,0.192-2.539 c0-0.043-0.004-0.085-0.004-0.128h3.655c0.001,0.018,0.005,0.035,0.006,0.053C46.099,54.68,44.953,56,43.544,56z"/><path fill="#8d6c9f" d="M36.817,21.812c0.023,0,0.047-0.001,0.07-0.002c0.551-0.039,0.967-0.517,0.929-1.067 c-0.008-0.104-0.011-0.208-0.011-0.313c0-0.553-0.447-1-1-1s-1,0.447-1,1c0,0.151,0.005,0.303,0.015,0.451 C35.857,21.408,36.297,21.812,36.817,21.812z"/></g></svg>